# xmcd
#
# Track frame offsets: 
#        150
#        16825
#        32337
#        46338
#        59202
#        75913
#        96697
#        109003
#        121368
#        139652
#        152566
#        168768
#        189399
#
# Disc length: 2637 seconds
#
# Revision: 0
# Processed by: cddbd v1.5.2PL0 Copyright (c) Steve Scherf et al.
# Submitted via: ExactAudioCopyFreeDBPlugin 1.0
#
DISCID=9e0a4b0d
DTITLE=Rory Block - I'm In Love
DYEAR=1976
DGENRE=Blues
TTITLE0=I'm In Love
TTITLE1=You Broke My Heart
TTITLE2=Lonesome Gal
TTITLE3=Strong And Lasting Kind
TTITLE4=You're Everything
TTITLE5=Lovin' Good Dream
TTITLE6=Nobody Knows You When You're Down And Out
TTITLE7=Canned Heat
TTITLE8=Why Should I Be So Lonely?
TTITLE9=Powder Rag
TTITLE10=Mississippi Blues
TTITLE11=Three Is A Crowd
TTITLE12=Blues Again
EXTD=
EXTT0=
EXTT1=
EXTT2=
EXTT3=
EXTT4=
EXTT5=
EXTT6=
EXTT7=
EXTT8=
EXTT9=
EXTT10=
EXTT11=
EXTT12=
PLAYORDER=
